<svg xmlns="http://www.w3.org/2000/svg" viewBox="0 0 215.27 71.5" class="logo"><defs><style>.Logo-1,.Logo-3,.Logo-4{fill:none;}.Logo-1,.Logo-2,.Logo-3,.Logo-4{stroke:#e97121;}.Logo-1,.Logo-2,.Logo-3{stroke-miterlimit:10;}.Logo-2,.Logo-6{fill:#e97121;}.Logo-3,.Logo-4{stroke-linecap:round;}.Logo-4{stroke-linejoin:round;}.Logo-5{isolation:isolate;}</style></defs><g id="Layer_2" data-name="Layer 2"><g id="Layer_1-2" data-name="Layer 1"><g id="Layer_1-2-2" data-name="Layer 1-2"><g id="c"><circle class="Logo-1" cx="34.94" cy="33.11" r="6.68"></circle><circle class="Logo-2" cx="34.94" cy="33.11" r="3.34"></circle><path class="Logo-3" d="M31.6,38.89s-1,5.9-3.33,8"></path><path class="Logo-3" d="M30.61,38.19a6.87,6.87,0,0,0-2.34,2.62"></path><path class="Logo-3" d="M33,39.5a12.11,12.11,0,0,1-.64,3.37"></path><line class="Logo-3" x1="19.11" y1="31.8" x2="28.11" y2="32.41"></line><line class="Logo-3" x1="28.35" y1="34.14" x2="24.18" y2="34.34"></line><line class="Logo-3" x1="28.65" y1="30.87" x2="24.42" y2="29.94"></line><line class="Logo-3" x1="32.53" y1="26.89" x2="30.79" y2="22.83"></line><path class="Logo-3" d="M34.13,26.49a43.83,43.83,0,0,0-2.29-8.71"></path><path class="Logo-3" d="M35.42,26.45a12.81,12.81,0,0,0-.48-5"></path><path class="Logo-3" d="M39.83,28.57a11.86,11.86,0,0,1,3.75-3.71"></path><line class="Logo-3" x1="40.72" y1="29.77" x2="49.88" y2="26.21"></line><line class="Logo-3" x1="41.3" y1="31.06" x2="46.19" y2="30.87"></line><line class="Logo-3" x1="40.38" y1="36.98" x2="44.13" y2="39.79"></line><line class="Logo-3" x1="39.39" y1="38.09" x2="44.13" y2="43.61"></line><path class="Logo-3" d="M37.78,39.15a24.52,24.52,0,0,1,2.79,4.46"></path><path class="Logo-3" d="M38.11,27.24s4.15-12.78,4-16.3S37,9.41,35.49,10.6c-.79.62-2.82,1.82-4.4,1-1-.5-3.26-2.28-4.83-.54C24.18,13.39,22,12.77,22,12.77s-3.9-.85-4.74,1.46S15.86,19.42,29.69,29c0,0-16.78-12.12-20-8.23s.85,4.84.78,7.25S8,29.66,7.8,31.46s2.61,3.62,2.74,5.21-1.93,1.56-1.56,4,4.81,3.55,7.86,2.23S29,36.13,29,36.13,16.13,43.28,15.49,49s4.77,1.76,6.56,2.57.88,2.74,2.14,3.28,4.36-1.48,5.89-1,3.44,3.79,5.14,4,4.34-3.72,3.52-7.27-2.51-10.9-2.51-10.9,3.87,15.13,8.61,15,3.25-.68,4.54-3.59,2.23-.48,3.35-.44,4.23-.78,2.1-4,2.37-3,2.37-3,4.7-1.46.33-4.85-16.06-4.24-16.06-4.24S54,37.39,60.58,32.75c3.56-2.51-3.42-6.91-3.42-6.91s-1.32-.71,1.22-2.61-1.12-3.11-2.57-2.91-3.56-1-2.34-2.88,0-5.34-1.94-5.07a15.38,15.38,0,0,0-9,5.21c-2.88,3.49-4.18,9-4.29,9.75"></path><path class="Logo-3" d="M32.37,55.77s.66,5.09-5.83,9.12a36.7,36.7,0,0,1-11.88,4.94A67.76,67.76,0,0,0,7.34,70a45.13,45.13,0,0,0-5.67.75c-1.88.41-1.27.48.24-1a17.52,17.52,0,0,0,2.6-3.34c3-4.82-.13-8.52,4.9-12.36s6-4.42,6-4.42"></path><path class="Logo-3" d="M22.89,52.24S5.45,70,1.91,69.68"></path><path class="Logo-3" d="M24.18,54.85s-12.47,12.67-18,15.23"></path><path class="Logo-3" d="M5.63,63.77a7.45,7.45,0,0,0,4.28.69"></path><path class="Logo-3" d="M6.56,57.84s3.62,3.17,7.07,3.33"></path><path class="Logo-3" d="M8.93,54.37s3.3,2.9,10.18,1.62"></path><path class="Logo-3" d="M12.4,66.28a2.79,2.79,0,0,0,1.95,3.43l.34.07"></path><path class="Logo-3" d="M17.88,61.47A7.19,7.19,0,0,0,20.38,68"></path><path class="Logo-3" d="M23.61,55.51s-2.36,6.28,2.65,9.55"></path><path class="Logo-3" d="M26.26,54.63s2.1,5.2,4.35,6.54"></path><path class="Logo-3" d="M21.89,53.25s-3,.26-4.08-1.12"></path><path class="Logo-4" d="M57.09,20.41s4.59-4.29,7.56-5.22,6.08-2.44,9.25-1.52,7.6,2.58,8.93,2.18,3.7-1.38,3.7-1.38l-4,4a94.19,94.19,0,0,0-6.28,11.34c-2,4.72-8.79,6.77-11.43,6.17a17.87,17.87,0,0,1-5.38-2.51"></path><path class="Logo-4" d="M57.09,24.48a48.49,48.49,0,0,0,25.74-8.63"></path><path class="Logo-4" d="M59.62,27.76S74.1,24.9,82.23,19"></path><path class="Logo-4" d="M61.88,16.61c1.12,4.14-2.26,7.73-2.26,7.73"></path><path class="Logo-4" d="M65.17,23.47s6.14-5.6,6.35-10.08"></path><path class="Logo-4" d="M76.68,14.53a17.17,17.17,0,0,1-2.17,6"></path><path class="Logo-4" d="M73.5,23.76s2.88,1.7,3.59,4.23"></path><path class="Logo-4" d="M66.78,26.07a12,12,0,0,1,5,8.28"></path><path class="Logo-4" d="M61.59,27.38S66.2,30.86,66.78,36"></path><path class="Logo-4" d="M5.73.5S7,13.09,22.89,24.34c0,0-11.11-8.66-12.8-21.59"></path><path class="Logo-4" d="M22.89,24.34S9.15,17.24,7.19,9.66"></path></g><g id="d"><g class="Logo-5"><path class="Logo-6" d="M58.17,53c-.09-.4-.09-.67,0-.79a1.46,1.46,0,0,1,.71-.32c.13-.54.25-1.05.37-1.53s.22-1,.33-1.42c.31-1.34.62-2.53.9-3.58s.56-2,.81-2.82.49-1.59.71-2.25.44-1.3.64-1.87a2.72,2.72,0,0,1,.61-.35l.59-.21a3.33,3.33,0,0,1,.64-.16,2.09,2.09,0,0,1,.5,0,.8.8,0,0,1,.33.11.32.32,0,0,1,.17.25c-.71,1.87-1.31,3.61-1.82,5.2s-.94,3-1.27,4.15c-.39,1.37-.71,2.63-1,3.76A10.34,10.34,0,0,0,64,49.64a16.28,16.28,0,0,0,2.27-2.2,22.42,22.42,0,0,0,1.85-2.53,16.38,16.38,0,0,0,1.32-2.55,10.82,10.82,0,0,0,.68-2.25,3,3,0,0,0-.07-1.65A9.5,9.5,0,0,1,71.31,38a3.63,3.63,0,0,1,.58-.16c.48-.13.78-.06.91.23a3,3,0,0,1,.12,1.3,9.64,9.64,0,0,1-1,3.86,16.54,16.54,0,0,1-2.29,3.55,20.09,20.09,0,0,1-3.08,3,17.07,17.07,0,0,1-3.32,2.06l.91-.09.84,0a6.11,6.11,0,0,1,1.39.15,3.07,3.07,0,0,1,1.13.51,2.52,2.52,0,0,1,.75.95,3.47,3.47,0,0,1,.24,1.45,9.5,9.5,0,0,1-.37,2.36c-.2.69-.42,1.33-.65,1.91l-.65,1.63a4.35,4.35,0,0,0-.34,1.53,2.77,2.77,0,0,0,.22,1.29,2.42,2.42,0,0,0,.66.84,2.76,2.76,0,0,0,1.68.6,6.5,6.5,0,0,0,1-.1,8.29,8.29,0,0,0,1-.24.21.21,0,0,1,.26.09.4.4,0,0,1,.1.25,1.25,1.25,0,0,1-.14.4,1,1,0,0,1-.53.46,7,7,0,0,1-1,.39,5.76,5.76,0,0,1-1.67.19A3.56,3.56,0,0,1,66.63,66a4.51,4.51,0,0,1-1.36-.89,4.61,4.61,0,0,1-1-1.32,2.9,2.9,0,0,1-.34-1.61,6.22,6.22,0,0,1,.34-1.84c.2-.61.42-1.21.65-1.78s.44-1.13.64-1.66a5.06,5.06,0,0,0,.32-1.49,2.27,2.27,0,0,0-.64-1.88,3.57,3.57,0,0,0-2.37-.62c-.37,0-.72,0-1,.05s-.59.08-.79.12c-.5,2.52-.85,4.42-1,5.7s-.29,2.12-.31,2.51v.5a3.8,3.8,0,0,0,0,.46,3.25,3.25,0,0,0,.08.45,3.78,3.78,0,0,1-1,.55,5.5,5.5,0,0,1-.87.26,3.57,3.57,0,0,1-.87.11,1.36,1.36,0,0,1-.36,0l-.29-.11a.38.38,0,0,1-.21-.2c.3-1.24.59-2.44.86-3.59s.52-2.18.73-3.09l.69-3a1,1,0,0,1-.19-.25A1.24,1.24,0,0,1,58.17,53Z"></path><path class="Logo-6" d="M84.42,52.77a20.85,20.85,0,0,1-1.9,2.38,16.62,16.62,0,0,1-2.24,2.06,12.27,12.27,0,0,1-2.42,1.46,5.87,5.87,0,0,1-2.41.56,3.59,3.59,0,0,1-1.32-.29A3.85,3.85,0,0,1,72.84,58a4.44,4.44,0,0,1-.93-1.58,5.24,5.24,0,0,1-.21-2.37,7.26,7.26,0,0,1,.71-2.41,10.72,10.72,0,0,1,1.47-2.32,8.43,8.43,0,0,1,2-1.76,4.12,4.12,0,0,1,2.21-.69,2,2,0,0,1,1.53.53A1.67,1.67,0,0,1,80,48.74a4.06,4.06,0,0,1-.49,1.58,6.59,6.59,0,0,1-1,1.31,9.83,9.83,0,0,1-1.18,1.06c-.42.31-.81.6-1.19.86L75,54.34c-.38.25-.7.48-1,.69a3.07,3.07,0,0,0,.25,1.17,2.35,2.35,0,0,0,.56.76,2.18,2.18,0,0,0,.76.42,3.28,3.28,0,0,0,.88.12,4,4,0,0,0,2-.6,13.11,13.11,0,0,0,2-1.44,22.15,22.15,0,0,0,1.84-1.77q.85-.91,1.41-1.59a.79.79,0,0,1,.4-.26.34.34,0,0,1,.46.39A1.1,1.1,0,0,1,84.42,52.77Zm-7.13-4.29a1.45,1.45,0,0,0-.79.34,4,4,0,0,0-.91,1,9,9,0,0,0-.83,1.53,8.87,8.87,0,0,0-.59,2.07c.23-.16.47-.34.73-.51l.78-.57a7.85,7.85,0,0,0,1.67-1.62,2.74,2.74,0,0,0,.52-1.19,1.14,1.14,0,0,0-.11-.77A.54.54,0,0,0,77.29,48.48Z"></path><path class="Logo-6" d="M82,58.12c.82-3.44,1.47-6.19,2-8.27s.86-3.67,1.12-4.76c.3-1.3.5-2.2.62-2.7s.1-.7.13-1a6.88,6.88,0,0,0,.06-.92,4.57,4.57,0,0,0-.08-.86,2.09,2.09,0,0,1,.48-.22,3.67,3.67,0,0,1,.52-.14c.2-.06.41-.1.61-.14A3,3,0,0,1,88,39a2.72,2.72,0,0,1,.42,0,.35.35,0,0,1,.25.18.7.7,0,0,1,.15.56,8.54,8.54,0,0,1-.07.86c-.07.36-.16.74-.25,1.14-.22.8-.53,2-.92,3.46l-1.35,5.23q-.85,3.32-2.13,8.35a.69.69,0,0,1-.33.19,1.23,1.23,0,0,1-.36.06l-.42,0a1.65,1.65,0,0,1-.39-.17,2.11,2.11,0,0,1-.34-.29A1.21,1.21,0,0,1,82,58.12Z"></path><path class="Logo-6" d="M92.57,57.61a.73.73,0,0,0,.43.11,1.26,1.26,0,0,0,.53-.11,1.85,1.85,0,0,0,.5-.3,1.11,1.11,0,0,0,.35-.5,1.83,1.83,0,0,0,0-.88A7.38,7.38,0,0,0,94,54.71c-.16-.44-.33-.88-.51-1.33s-.35-.85-.48-1.22-.2-.54-.27-.78-.15-.4-.21-.6a3.54,3.54,0,0,0-.16-.4q-.14.23-.48.72c-.24.34-.49.68-.76,1s-.52.7-.76,1l-.5.62a.76.76,0,0,1-.43.29.38.38,0,0,1-.35-.08.46.46,0,0,1-.15-.36,1,1,0,0,1,.2-.57c.12-.15.28-.39.51-.71s.44-.66.66-1,.43-.65.62-.92a3.63,3.63,0,0,0,.3-.49.8.8,0,0,0-.15-.58,1,1,0,0,1-.07-.84,2.76,2.76,0,0,1,.5-.9,5.39,5.39,0,0,1,.92-.93,4,4,0,0,1,1.08-.63,1.26,1.26,0,0,1,1,0,2.63,2.63,0,0,1,.58.49.65.65,0,0,1,.17.54c0,.1-.1.22-.17.37a4.15,4.15,0,0,1-.33.54c-.15.21-.37.48-.64.82A7.58,7.58,0,0,0,94.39,50c.1.35.2.66.3.92a7.67,7.67,0,0,0,.36.86c.16.33.34.68.53,1s.35.7.5,1a10,10,0,0,1,.36,1,1.6,1.6,0,0,1,.08.75A3.58,3.58,0,0,1,96,56.7,7.82,7.82,0,0,1,95,58a6.18,6.18,0,0,1-1.36,1.07,3.1,3.1,0,0,1-1.6.45,2,2,0,0,1-1.13-.37,3.93,3.93,0,0,1-1.47-1.8.86.86,0,0,1,0-.73,4.54,4.54,0,0,1,.3-.53,2.37,2.37,0,0,1,.42-.44c.07-.06.17-.12.28-.2a1.92,1.92,0,0,1,.39-.16l.58-.2a12.86,12.86,0,0,0,.5,1.35l.36.77A1.58,1.58,0,0,0,92.57,57.61Z"></path><path class="Logo-6" d="M111.27,52.77a19.71,19.71,0,0,1-1.89,2.38,16.62,16.62,0,0,1-2.24,2.06,12.57,12.57,0,0,1-2.42,1.46,5.9,5.9,0,0,1-2.41.56,3.55,3.55,0,0,1-1.32-.29A3.76,3.76,0,0,1,99.7,58a4.45,4.45,0,0,1-.94-1.58,5.54,5.54,0,0,1-.21-2.37,7.51,7.51,0,0,1,.71-2.41,10.76,10.76,0,0,1,1.48-2.32,8.24,8.24,0,0,1,2-1.76,4.12,4.12,0,0,1,2.21-.69,2,2,0,0,1,1.53.53,1.75,1.75,0,0,1,.42,1.31,4.06,4.06,0,0,1-.49,1.58,6.59,6.59,0,0,1-1,1.31,10.66,10.66,0,0,1-1.18,1.06l-1.19.86-1.17.79c-.37.25-.69.48-1,.69a3.07,3.07,0,0,0,.25,1.17,2.21,2.21,0,0,0,.56.76,2.09,2.09,0,0,0,.76.42,3.28,3.28,0,0,0,.88.12,4,4,0,0,0,2-.6,13.62,13.62,0,0,0,2-1.44,23.83,23.83,0,0,0,1.84-1.77c.57-.61,1-1.14,1.41-1.59a.75.75,0,0,1,.4-.26.39.39,0,0,1,.33,0,.4.4,0,0,1,.13.34A1,1,0,0,1,111.27,52.77Zm-7.12-4.29a1.51,1.51,0,0,0-.8.34,4.22,4.22,0,0,0-.9,1,8.34,8.34,0,0,0-.83,1.53,8.87,8.87,0,0,0-.59,2.07c.22-.16.46-.34.72-.51s.52-.37.78-.57a7.39,7.39,0,0,0,1.67-1.62,2.66,2.66,0,0,0,.53-1.19,1.14,1.14,0,0,0-.11-.77A.54.54,0,0,0,104.15,48.48Z"></path><path class="Logo-6" d="M116.59,48.32a3.2,3.2,0,0,1,.71-.43,2.83,2.83,0,0,1,.62-.21,1.64,1.64,0,0,1,.62-.06q.75.06.93.48a2.63,2.63,0,0,1,0,1.33,8,8,0,0,1-.33,1.2c-.17.48-.36,1.07-.59,1.76s-.46,1.49-.71,2.39-.48,1.89-.71,3q-.33,1.36-.72,3.15c-.22,1-.49,2.29-.79,3.75s-.64,3.15-1,5q-.14.69-.6.81a1.55,1.55,0,0,1-1-.11,3.27,3.27,0,0,1-.36-.25l-.31-.32a1.75,1.75,0,0,1-.28-.49c.43-1.56.81-3,1.13-4.26s.62-2.39.88-3.34.54-2.08.78-2.95c.09-.39.18-.77.26-1.15s.17-.76.27-1.13q-.37.59-.78,1.11a5.72,5.72,0,0,1-.92.92,4.06,4.06,0,0,1-1.07.6,2.4,2.4,0,0,1-1.19.12,2.88,2.88,0,0,1-2.13-1.11,3.85,3.85,0,0,1-.54-2.39A9.23,9.23,0,0,1,109,54.5c.09-.47.19-.91.31-1.34s.21-.81.32-1.15.18-.59.23-.74c.22-.71.39-1.31.49-1.81a1.47,1.47,0,0,0-.24-1.25,2.58,2.58,0,0,1,.74-.35,4.71,4.71,0,0,1,.63-.15,3.11,3.11,0,0,1,.61,0c.5.07.79.25.88.55a2.86,2.86,0,0,1-.1,1.34c-.08.31-.2.72-.36,1.21L112,52.33c-.19.52-.36,1-.5,1.43a5.37,5.37,0,0,0-.26.93,4,4,0,0,0,0,1.93.93.93,0,0,0,1,.69A1.47,1.47,0,0,0,113,57a5.38,5.38,0,0,0,.9-.85,11.22,11.22,0,0,0,.91-1.21c.29-.46.57-.92.82-1.38s.47-.92.67-1.36a10.57,10.57,0,0,0,.43-1.2c.13-.69.21-1.22.25-1.61A1.29,1.29,0,0,0,116.59,48.32Z"></path><path class="Logo-6" d="M123.55,42.5a1.12,1.12,0,0,1-.74-.4,1.23,1.23,0,0,1-.21-1,1.93,1.93,0,0,1,.28-.77,2.35,2.35,0,0,1,.54-.59,2.1,2.1,0,0,1,.71-.37,2.43,2.43,0,0,1,.81-.08,1,1,0,0,1,.93.71,2.76,2.76,0,0,1,.07,1.38,6.61,6.61,0,0,1-.22.92,5.67,5.67,0,0,1-.49,1.08,6.88,6.88,0,0,1-.78,1.09,5.09,5.09,0,0,1-1.1.94.74.74,0,0,1-.43.16.25.25,0,0,1-.21-.14.49.49,0,0,1,0-.32.87.87,0,0,1,.18-.36,4.54,4.54,0,0,0,.65-.94,4.36,4.36,0,0,0,.49-1.35l-.25.06A.29.29,0,0,1,123.55,42.5Z"></path><path class="Logo-6" d="M129.17,57.61a.71.71,0,0,0,.43.11,1.26,1.26,0,0,0,.53-.11,1.85,1.85,0,0,0,.5-.3,1.19,1.19,0,0,0,.35-.5,1.83,1.83,0,0,0,0-.88,8.51,8.51,0,0,0-.35-1.22c-.16-.44-.33-.88-.51-1.33s-.35-.85-.48-1.22-.2-.54-.28-.78-.14-.4-.2-.6a3.54,3.54,0,0,0-.16-.4q-.13.23-.48.72c-.24.34-.49.68-.76,1s-.52.7-.76,1l-.5.62a.8.8,0,0,1-.43.29.38.38,0,0,1-.35-.08.43.43,0,0,1-.15-.36.94.94,0,0,1,.2-.57l.5-.71c.23-.32.45-.66.67-1s.43-.65.61-.92a3.15,3.15,0,0,0,.31-.49.8.8,0,0,0-.15-.58,1,1,0,0,1-.07-.84,2.76,2.76,0,0,1,.5-.9,5.06,5.06,0,0,1,.92-.93,4,4,0,0,1,1.08-.63,1.26,1.26,0,0,1,1,0,2.63,2.63,0,0,1,.58.49.65.65,0,0,1,.17.54c0,.1-.1.22-.17.37a5.68,5.68,0,0,1-.33.54c-.15.21-.37.48-.64.82A7.58,7.58,0,0,0,131,50c.1.35.2.66.29.92s.24.6.37.86.34.68.52,1,.36.7.51,1,.26.67.36,1a1.6,1.6,0,0,1,.08.75,3.42,3.42,0,0,1-.49,1.15,7.24,7.24,0,0,1-1,1.29,6.18,6.18,0,0,1-1.36,1.07,3.13,3.13,0,0,1-1.6.45,2,2,0,0,1-1.13-.37,3.93,3.93,0,0,1-1.47-1.8.91.91,0,0,1,0-.73c.12-.22.22-.4.31-.53a2.37,2.37,0,0,1,.42-.44,3,3,0,0,1,.28-.2,1.92,1.92,0,0,1,.39-.16l.58-.2a12.86,12.86,0,0,0,.5,1.35l.36.77A1.38,1.38,0,0,0,129.17,57.61Z"></path><path class="Logo-6" d="M145,41.14a.74.74,0,0,1-.5,0,.53.53,0,0,1-.25-.28,1,1,0,0,1-.08-.43,2.63,2.63,0,0,1,.12-.91,3.27,3.27,0,0,1,.18-.47,1.19,1.19,0,0,1,.27-.38.81.81,0,0,1,.4-.21c.85-.14,1.68-.26,2.49-.33l2.18-.17c.75-.05,1.46-.08,2.15-.08h.44l.45,0a1.31,1.31,0,0,1,.4,0l.27,0c.53,0,1.09,0,1.67.08l1.62.12c.61,0,1.21.11,1.8.19a1.08,1.08,0,0,1,0,.55l-.06.34a.59.59,0,0,1-.14.3,1,1,0,0,1-.21.27,1.27,1.27,0,0,1-.29.21c-.63,0-1.24,0-1.82,0l-1.55,0H153l-.89,3.16c-.35,1.25-.71,2.57-1.07,3.95s-.71,2.76-1,4.12-.58,2.59-.77,3.69-.37,2.1-.55,3.12c-.08.42-.16.87-.24,1.33s-.16.92-.22,1.37-.13.87-.18,1.28-.11.77-.14,1.11a6.89,6.89,0,0,1-.84.35q-.39.12-.69.18a3.38,3.38,0,0,1-.67.08,1.35,1.35,0,0,1-.82-.15c-.1-.1-.12-.3,0-.6s.22-1,.5-2.12c.11-.48.25-1.09.43-1.82s.38-1.62.62-2.67.53-2.27.87-3.67.71-3,1.14-4.83l1.86-7.74c-.55.07-1.1.16-1.64.25s-1,.19-1.52.29l-1.28.29Z"></path><path class="Logo-6" d="M169.61,53c-.26.37-.6.83-1,1.38s-.83,1.09-1.27,1.64-.86,1.05-1.28,1.5a6.28,6.28,0,0,1-1,1,2.48,2.48,0,0,1-.64.28,3.12,3.12,0,0,1-.74.14,2.37,2.37,0,0,1-.71,0,1.63,1.63,0,0,1-.59-.24,1.5,1.5,0,0,1-.41-.55,5.08,5.08,0,0,1-.27-.81,4.65,4.65,0,0,1-.09-1.25,5.9,5.9,0,0,1-1.48,1.71,6.82,6.82,0,0,1-1.53.88,6.25,6.25,0,0,1-1.67.36,1.65,1.65,0,0,1-.84-.27,2.11,2.11,0,0,1-.75-.83,4,4,0,0,1-.39-1.48,6.65,6.65,0,0,1,.23-2.15,10.41,10.41,0,0,1,1.23-3.09,12.44,12.44,0,0,1,1.86-2.38,7.93,7.93,0,0,1,2-1.49,3.27,3.27,0,0,1,1.62-.45,3.42,3.42,0,0,1,1.22.45,1.35,1.35,0,0,1,.52.82,2,2,0,0,1-.46,1.43c.26,0,.47-.09.65-.11l.4,0a.56.56,0,0,1,.23,0,1.1,1.1,0,0,1,0,.24,3.74,3.74,0,0,1-.08.65c0,.32-.14.74-.25,1.28s-.26,1.24-.45,2.09c0,.17-.06.32-.09.46l-.09.42c0,.14-.06.3-.09.48s-.09.42-.14.7a3.17,3.17,0,0,0,0,.54,2.16,2.16,0,0,0,.1.54.85.85,0,0,0,.27.41.78.78,0,0,0,.51.15,1.23,1.23,0,0,0,.72-.35,7.58,7.58,0,0,0,1-.89c.33-.36.68-.76,1-1.19s.7-.86,1-1.27l.85-1.09.54-.69a.77.77,0,0,1,.45-.29.29.29,0,0,1,.33.12.66.66,0,0,1,0,.5A2.06,2.06,0,0,1,169.61,53Zm-8.16,1.23c.1-.37.21-.81.34-1.31s.24-1,.33-1.45.16-.85.21-1.15,0-.45,0-.44L162,50a1.38,1.38,0,0,1-.36.08l-.44.08a2.82,2.82,0,0,0,.26-.73,1.45,1.45,0,0,0,0-.46.57.57,0,0,0-.11-.31c-.2-.17-.56,0-1.07.4a9.6,9.6,0,0,0-1.77,2.41,7.61,7.61,0,0,0-.66,1.55,8.85,8.85,0,0,0-.35,1.54,5.07,5.07,0,0,0,0,1.27,1.2,1.2,0,0,0,.22.71.91.91,0,0,0,.7.29,1.89,1.89,0,0,0,.79-.22,4,4,0,0,0,.8-.55,6,6,0,0,0,.73-.69,6.69,6.69,0,0,0,.53-.67A1.22,1.22,0,0,0,161.45,54.25Z"></path><path class="Logo-6" d="M178,51.52a.52.52,0,0,1,.3-.21.35.35,0,0,1,.29,0,.39.39,0,0,1,.12.28,1.1,1.1,0,0,1-.15.53,18.89,18.89,0,0,1-1.46,2.28,25.33,25.33,0,0,1-1.91,2.3,13.35,13.35,0,0,1-1.95,1.76,2.85,2.85,0,0,1-1.58.7,3,3,0,0,1-1.53-.36,2.85,2.85,0,0,1-1-.89,3.41,3.41,0,0,1-.49-1.16,3.55,3.55,0,0,1-.08-1.15c0-.3.08-.83.19-1.6s.26-1.66.45-2.67.39-2.1.62-3.26.48-2.28.74-3.35l-1,.11c-.31,0-.6.05-.86.05a7.27,7.27,0,0,1-2.86-.61.3.3,0,0,1-.2-.32.93.93,0,0,1,.17-.42,1.46,1.46,0,0,1,.34-.36.68.68,0,0,1,.38-.15q.52.06,1.14.09a11.68,11.68,0,0,0,1.34,0l1-.08,1-.14c.25-.89.48-1.67.71-2.33a6.15,6.15,0,0,1,.63-1.38.67.67,0,0,1,.38-.23,3,3,0,0,1,.62-.14,2.29,2.29,0,0,1,.64,0,.71.71,0,0,1,.45.21,2.64,2.64,0,0,1,.11,1.14,14.82,14.82,0,0,1-.31,2.34,16.1,16.1,0,0,1,2.08.12c.6.09,1.11.18,1.54.28a6.51,6.51,0,0,1,1,.31,5.11,5.11,0,0,0,.58.2.29.29,0,0,1,.21.28,1,1,0,0,1-.08.46.91.91,0,0,1-.32.41.6.6,0,0,1-.5.11,6,6,0,0,1-.63-.11,5.28,5.28,0,0,0-.83-.14c-.33,0-.71-.08-1.16-.11s-1-.06-1.56-.06h-.37l-.43,0c-.08.29-.15.59-.21.87a7.62,7.62,0,0,1-.27.91c-.24.74-.52,1.55-.83,2.42s-.61,1.63-1,2.62-.83,2-1.31,3.14a4.22,4.22,0,0,0,0,1.82,2.1,2.1,0,0,0,.52.91,1.41,1.41,0,0,0,.89.33,1.66,1.66,0,0,0,1-.29,7.28,7.28,0,0,0,1.24-.93c.43-.39.86-.82,1.29-1.28s.84-.92,1.22-1.37.69-.84,1-1.21Z"></path><path class="Logo-6" d="M186.61,51.52a.52.52,0,0,1,.3-.21.35.35,0,0,1,.29,0,.39.39,0,0,1,.12.28,1.1,1.1,0,0,1-.15.53,18.89,18.89,0,0,1-1.46,2.28,25.33,25.33,0,0,1-1.91,2.3,13.85,13.85,0,0,1-1.94,1.76,2.9,2.9,0,0,1-1.59.7,3,3,0,0,1-1.53-.36,2.85,2.85,0,0,1-1-.89,3.41,3.41,0,0,1-.49-1.16,3.55,3.55,0,0,1-.08-1.15c0-.3.08-.83.19-1.6s.26-1.66.45-2.67.39-2.1.62-3.26.48-2.28.74-3.35l-1,.11c-.31,0-.6.05-.86.05a7.27,7.27,0,0,1-2.86-.61.3.3,0,0,1-.2-.32.93.93,0,0,1,.17-.42,1.33,1.33,0,0,1,.35-.36.63.63,0,0,1,.37-.15q.53.06,1.14.09a11.72,11.72,0,0,0,1.34,0l1-.08,1-.14c.24-.89.48-1.67.71-2.33a6.15,6.15,0,0,1,.63-1.38.67.67,0,0,1,.38-.23,3,3,0,0,1,.62-.14,2.29,2.29,0,0,1,.64,0,.71.71,0,0,1,.45.21,2.64,2.64,0,0,1,.11,1.14,14.82,14.82,0,0,1-.31,2.34,16.1,16.1,0,0,1,2.08.12c.6.09,1.11.18,1.54.28a6.51,6.51,0,0,1,1,.31,5.11,5.11,0,0,0,.59.2.29.29,0,0,1,.2.28,1.09,1.09,0,0,1-.08.46,1,1,0,0,1-.32.41.6.6,0,0,1-.5.11,6,6,0,0,1-.63-.11,5.28,5.28,0,0,0-.83-.14c-.33,0-.71-.08-1.16-.11s-1-.06-1.56-.06h-.37l-.43,0c-.08.29-.15.59-.21.87a7.62,7.62,0,0,1-.27.91c-.24.74-.52,1.55-.83,2.42s-.61,1.63-1,2.62-.83,2-1.31,3.14a4.22,4.22,0,0,0,0,1.82,2.1,2.1,0,0,0,.52.91,1.41,1.41,0,0,0,.89.33,1.64,1.64,0,0,0,1-.29,7.28,7.28,0,0,0,1.24-.93c.43-.39.86-.82,1.3-1.28s.83-.92,1.21-1.37.69-.84,1-1.21Z"></path><path class="Logo-6" d="M193.18,54.13a9,9,0,0,1-.75,2,6.42,6.42,0,0,1-1.13,1.59,4.86,4.86,0,0,1-1.47,1,4.3,4.3,0,0,1-1.8.38,3,3,0,0,1-1.79-.49,3.09,3.09,0,0,1-1-1.21,5,5,0,0,1-.39-1.59c0-.57-.06-1.11-.06-1.61a6.45,6.45,0,0,1,.12-1.17,9.82,9.82,0,0,1,.35-1.31,9.5,9.5,0,0,1,.57-1.33,6.13,6.13,0,0,1,.82-1.23,2.3,2.3,0,0,1,.51-.83,3.16,3.16,0,0,1,.81-.6,4.34,4.34,0,0,1,2-.49.33.33,0,0,1,.15,0l.16.05a3,3,0,0,1,.9.28,4.14,4.14,0,0,1,1.06.75,4.68,4.68,0,0,1,.88,1.27,4.33,4.33,0,0,1,.36,1.85q0,.23,0,.54c0,.22,0,.4-.06.55a12.11,12.11,0,0,0,1.34-.62c.46-.24.91-.49,1.35-.76s.84-.54,1.21-.82a8.82,8.82,0,0,0,.89-.75,1,1,0,0,1,.47-.28.25.25,0,0,1,.28.11.49.49,0,0,1,0,.39,1.45,1.45,0,0,1-.31.56,8,8,0,0,1-.71.66c-.38.34-.83.7-1.35,1.09s-1.08.77-1.69,1.14A8.63,8.63,0,0,1,193.18,54.13Zm-6.48.67c0,.34,0,.67.05,1a3,3,0,0,0,.23.86,1.78,1.78,0,0,0,.44.62,1.14,1.14,0,0,0,.73.23,1.86,1.86,0,0,0,.91-.23,3.18,3.18,0,0,0,.76-.62,4.21,4.21,0,0,0,.59-.86,7.1,7.1,0,0,0,.46-1l-.37,0h-.41a2.83,2.83,0,0,1-1.82-.62,4.19,4.19,0,0,1-1.18-1.61c-.11.39-.21.78-.28,1.15A5.68,5.68,0,0,0,186.7,54.8Zm1.78-4.9a1.59,1.59,0,0,0-.08.53,7.7,7.7,0,0,0,0,.94,2.28,2.28,0,0,0,.28.87,1.76,1.76,0,0,0,.71.66,2.91,2.91,0,0,0,1.35.26h.28l.28,0c.05-.25.1-.46.15-.66a2.68,2.68,0,0,0,.07-.51,5,5,0,0,0,0-1.09,5.11,5.11,0,0,0-.21-1,2.41,2.41,0,0,0-.39-.75.73.73,0,0,0-.57-.29,2,2,0,0,0-1,.29A3.6,3.6,0,0,0,188.48,49.9Z"></path><path class="Logo-6" d="M204.4,54.13a10.15,10.15,0,0,1-.75,2,6.69,6.69,0,0,1-1.13,1.59,5.12,5.12,0,0,1-1.47,1,4.3,4.3,0,0,1-1.8.38,3,3,0,0,1-1.8-.49,3.07,3.07,0,0,1-1-1.21,5,5,0,0,1-.39-1.59c-.05-.57-.07-1.11-.07-1.61a5.73,5.73,0,0,1,.13-1.17,11.51,11.51,0,0,1,.34-1.31,8.52,8.52,0,0,1,.58-1.33,6.13,6.13,0,0,1,.82-1.23,2.3,2.3,0,0,1,.51-.83,2.85,2.85,0,0,1,.81-.6,4.31,4.31,0,0,1,1-.37,4.59,4.59,0,0,1,1-.12.4.4,0,0,1,.15,0l.15.05a3,3,0,0,1,.91.28,3.93,3.93,0,0,1,1.05.75,4.28,4.28,0,0,1,.88,1.27,4.33,4.33,0,0,1,.36,1.85q0,.23,0,.54c0,.22,0,.4,0,.55A13,13,0,0,0,206,52c.46-.24.91-.49,1.35-.76s.83-.54,1.21-.82a10.1,10.1,0,0,0,.89-.75,1,1,0,0,1,.47-.28.26.26,0,0,1,.28.11.6.6,0,0,1,0,.39,1.45,1.45,0,0,1-.31.56,8,8,0,0,1-.71.66c-.38.34-.83.7-1.35,1.09s-1.09.77-1.7,1.14A8.33,8.33,0,0,1,204.4,54.13Zm-6.49.67a8,8,0,0,0,.06,1,3,3,0,0,0,.22.86,1.68,1.68,0,0,0,.45.62,1.09,1.09,0,0,0,.72.23,1.9,1.9,0,0,0,.92-.23,3,3,0,0,0,.75-.62,4.67,4.67,0,0,0,.6-.86,7.1,7.1,0,0,0,.46-1l-.38,0h-.4a2.81,2.81,0,0,1-1.82-.62,4.21,4.21,0,0,1-1.19-1.61c-.11.39-.2.78-.27,1.15A5,5,0,0,0,197.91,54.8Zm1.79-4.9a1.6,1.6,0,0,0-.09.53,7.78,7.78,0,0,0,.06.94,2.12,2.12,0,0,0,.28.87,1.69,1.69,0,0,0,.71.66,2.91,2.91,0,0,0,1.35.26h.27l.28,0,.16-.66a2.68,2.68,0,0,0,.07-.51,6.61,6.61,0,0,0,0-1.09,5.11,5.11,0,0,0-.21-1,2.92,2.92,0,0,0-.39-.75.73.73,0,0,0-.57-.29,2,2,0,0,0-1,.29A3.44,3.44,0,0,0,199.7,49.9Z"></path><path class="Logo-6" d="M211.3,57.61a.73.73,0,0,0,.43.11,1.26,1.26,0,0,0,.53-.11,1.85,1.85,0,0,0,.5-.3,1.11,1.11,0,0,0,.35-.5,1.83,1.83,0,0,0,0-.88,7.38,7.38,0,0,0-.35-1.22c-.16-.44-.33-.88-.51-1.33s-.35-.85-.48-1.22-.2-.54-.27-.78-.15-.4-.21-.6a3.54,3.54,0,0,0-.16-.4q-.13.23-.48.72l-.75,1c-.27.37-.53.7-.77,1l-.5.62a.76.76,0,0,1-.43.29.38.38,0,0,1-.35-.08.5.5,0,0,1-.15-.36,1,1,0,0,1,.21-.57l.5-.71.67-1c.22-.35.42-.65.61-.92a3.63,3.63,0,0,0,.3-.49.8.8,0,0,0-.15-.58,1,1,0,0,1-.07-.84,2.76,2.76,0,0,1,.5-.9,5.39,5.39,0,0,1,.92-.93,3.9,3.9,0,0,1,1.09-.63,1.24,1.24,0,0,1,1,0,2.63,2.63,0,0,1,.58.49.62.62,0,0,1,.17.54,3.53,3.53,0,0,1-.17.37,4.15,4.15,0,0,1-.33.54c-.15.21-.36.48-.64.82a7.58,7.58,0,0,0,.23,1.17c.11.35.2.66.3.92a7.67,7.67,0,0,0,.36.86c.17.33.34.68.53,1s.35.7.5,1a10,10,0,0,1,.36,1,1.6,1.6,0,0,1,.08.75,3.36,3.36,0,0,1-.48,1.15,7.82,7.82,0,0,1-1,1.29,6,6,0,0,1-1.36,1.07,3.1,3.1,0,0,1-1.6.45,2.05,2.05,0,0,1-1.13-.37,3.93,3.93,0,0,1-1.47-1.8.86.86,0,0,1,0-.73,4.54,4.54,0,0,1,.3-.53,2.76,2.76,0,0,1,.42-.44c.07-.06.17-.12.28-.2a1.92,1.92,0,0,1,.39-.16l.58-.2a12.86,12.86,0,0,0,.5,1.35l.36.77A1.58,1.58,0,0,0,211.3,57.61Z"></path></g></g></g></g></g></svg>